<?xml version="1.0" encoding="utf-8"?>
<!-- Generator: Adobe Illustrator 21.1.0, SVG Export Plug-In . SVG Version: 6.00 Build 0)  -->
<svg version="1.1" id="Groupe_26" xmlns="http://www.w3.org/2000/svg" xmlns:xlink="http://www.w3.org/1999/xlink" x="0px" y="0px"
	 viewBox="0 0 33.9 33.9" style="enable-background:new 0 0 33.9 33.9;" xml:space="preserve">
<style type="text/css">
	.st0{fill:#FFFFFF;}
</style>
<path class="st0" d="M32.4,23.5l-2.2-13.3L29,3c0-0.2-0.2-0.4-0.5-0.4h-23C5.2,2.6,5,2.8,5,3l-1.2,7.3L1.6,23.4L1,26.9
	c0,0.2,0.1,0.3,0.1,0.4c0.1,0.1,0.3,0.2,0.4,0.2h31c0.2,0,0.3,0,0.4-0.2C33,27.2,33,27,33,26.9L32.4,23.5z M2.1,26.5l0.5-2.9
	l2.3-13.1L6,3.6h22.1l1.1,6.8l2.2,13.3l0.5,2.8H2.1z"/>
<g id="Forme_1157_copie_5">
	<path class="st0" d="M31.5,29.6h-29c-0.3,0-0.5-0.2-0.5-0.5s0.2-0.5,0.5-0.5h29c0.3,0,0.5,0.2,0.5,0.5S31.8,29.6,31.5,29.6z"/>
</g>
<g id="Forme_1157_copie_6">
	<path class="st0" d="M18.2,6.8h-10c-0.6,0-1-0.4-1-1s0.4-1,1-1h10c0.6,0,1,0.4,1,1S18.7,6.8,18.2,6.8z"/>
</g>
<g id="Forme_1157_copie_7">
	<path class="st0" d="M30.5,31.6h-27c-0.3,0-0.5-0.2-0.5-0.5s0.2-0.5,0.5-0.5h27c0.3,0,0.5,0.2,0.5,0.5S30.8,31.6,30.5,31.6z"/>
</g>
<path class="st0" d="M17,9V7.5L11.7,10l5.3,2.5V11c3,0,5.5,2.5,5.5,5.5c0,3-2.5,5.5-5.5,5.5c-3,0-5.5-2.5-5.5-5.5h-2
	c0,4.1,3.4,7.5,7.5,7.5s7.5-3.4,7.5-7.5S21.1,9,17,9z"/>
</svg>
