<?xml version="1.0" encoding="utf-8"?>
<!-- Generator: Adobe Illustrator 21.1.0, SVG Export Plug-In . SVG Version: 6.00 Build 0)  -->
<svg version="1.1" id="Groupe_26" xmlns="http://www.w3.org/2000/svg" xmlns:xlink="http://www.w3.org/1999/xlink" x="0px" y="0px"
	 viewBox="0 0 33.9 33.9" style="enable-background:new 0 0 33.9 33.9;" xml:space="preserve">
<style type="text/css">
	.st0{fill:#FFFFFF;}
	.st1{enable-background:new    ;}
</style>
<g>
	<path class="st0" d="M4.2,32.5c-1.9-0.1-3.3-1.8-3.2-3.6c0-0.1,0-0.1,0.1-0.2L13.5,5c0.7-1.5,1.7-2.4,2.9-2.5
		c1.3-0.1,2.5,0.8,3.4,2.5c0,0,0,0,0,0l13.1,23.7c0,0.1,0.1,0.1,0.1,0.2c0.1,1.9-1.3,3.5-3.2,3.6L4.2,32.5z M1.9,29
		c0,1.3,1,2.4,2.3,2.5l25.5,0C31,31.4,32,30.3,32,29L19,5.5c-0.7-1.3-1.7-2-2.5-2c-0.8,0-1.5,0.7-2,1.9L1.9,29z"/>
</g>
<g class="st1">
	<path class="st0" d="M16.7,24.1c0.9,0,1.7,0.7,1.7,1.7c0,1-0.7,1.7-1.7,1.7c-0.9,0-1.7-0.7-1.7-1.7C15,24.8,15.8,24.1,16.7,24.1z
		 M15.5,14.9l-0.1-2.5H18l-0.1,2.5l-0.4,7.6h-1.7L15.5,14.9z"/>
</g>
</svg>
