<?xml version="1.0" encoding="utf-8"?>
<!-- Generator: Adobe Illustrator 21.1.0, SVG Export Plug-In . SVG Version: 6.00 Build 0)  -->
<svg version="1.1" id="Groupe_26" xmlns="http://www.w3.org/2000/svg" xmlns:xlink="http://www.w3.org/1999/xlink" x="0px" y="0px"
	 viewBox="0 0 33.9 33.9" style="enable-background:new 0 0 33.9 33.9;" xml:space="preserve">
<style type="text/css">
	.st0{fill:#FFFFFF;}
</style>
<path class="st0" d="M32,27.5l-7.7-7.7c1.1-1.9,1.7-4,1.7-6.3C26,6.6,20.4,1,13.5,1S1,6.6,1,13.5C1,20.4,6.6,26,13.5,26
	c2.3,0,4.5-0.6,6.4-1.8l7.7,7.7c0.6,0.6,1.4,0.9,2.2,0.9s1.6-0.3,2.2-0.9C33.2,30.7,33.2,28.7,32,27.5z M2,13.5C2,7.2,7.2,2,13.5,2
	S25,7.2,25,13.5C25,19.9,19.9,25,13.5,25S2,19.9,2,13.5z M31.3,31.3c-0.8,0.8-2.2,0.8-3,0l-7.5-7.5c1.2-0.8,2.2-1.9,3-3l7.5,7.5
	C32.1,29.1,32.1,30.4,31.3,31.3z"/>
<g>
	<path class="st0" d="M4.2,17.7c0.8,1.8,2.2,3.3,3.9,4.4v-9H4.2V17.7z"/>
	<path class="st0" d="M9.1,22.7c1.2,0.6,2.5,0.9,3.9,1V7H9.1V22.7z"/>
	<path class="st0" d="M17.8,22.8V10h-3.9v13.7C15.3,23.6,16.6,23.3,17.8,22.8z"/>
	<path class="st0" d="M22.6,18.1v-3.4h-3.9v7.5C20.4,21.3,21.7,19.8,22.6,18.1z"/>
</g>
</svg>
