<?xml version="1.0" encoding="utf-8"?>
<!-- Generator: Adobe Illustrator 21.1.0, SVG Export Plug-In . SVG Version: 6.00 Build 0)  -->
<svg version="1.1" id="Groupe_26" xmlns="http://www.w3.org/2000/svg" xmlns:xlink="http://www.w3.org/1999/xlink" x="0px" y="0px"
	 viewBox="0 0 33.9 33.9" style="enable-background:new 0 0 33.9 33.9;" xml:space="preserve">
<style type="text/css">
	.st0{fill:#FFFFFF;}
</style>
<g id="Rectangle_1194_copie_2">
	<path class="st0" d="M32.5,33h-14c-0.3,0-0.5-0.2-0.5-0.5v-15c0-0.3,0.2-0.5,0.5-0.5h14c0.3,0,0.5,0.2,0.5,0.5v15
		C33,32.7,32.8,33,32.5,33z M19,32h13V18H19V32z M16.5,33h-15C1.3,33,1,32.7,1,32.5v-20C1,12.2,1.3,12,1.5,12h15
		c0.3,0,0.5,0.2,0.5,0.5v20C17,32.7,16.8,33,16.5,33z M2,32h14V13H2V32z M32.5,16h-14c-0.3,0-0.5-0.2-0.5-0.5v-14
		C18,1.2,18.3,1,18.5,1h14C32.8,1,33,1.2,33,1.5v14C33,15.7,32.8,16,32.5,16z M19,15h13V2H19V15z M16.5,11h-15C1.3,11,1,10.7,1,10.5
		v-9C1,1.2,1.3,1,1.5,1h15C16.8,1,17,1.2,17,1.5v9C17,10.7,16.8,11,16.5,11z M2,10h14V2H2V10z"/>
</g>
</svg>
