<?xml version="1.0" encoding="utf-8"?>
<!-- Generator: Adobe Illustrator 21.1.0, SVG Export Plug-In . SVG Version: 6.00 Build 0)  -->
<svg version="1.1" id="Calque_1" xmlns="http://www.w3.org/2000/svg" xmlns:xlink="http://www.w3.org/1999/xlink" x="0px" y="0px"
	 viewBox="0 0 24.3 32.1" style="enable-background:new 0 0 24.3 32.1;" xml:space="preserve">
<style type="text/css">
	.st0{fill:none;enable-background:new    ;}
	.st1{fill:#000000;}
</style>
<path class="st0" d="z"/>
<g>
	<path class="st1" d="M21.8,0.1H2.5C1.1,0.1,0,1.3,0,2.6v27c0,1.4,1.1,2.5,2.5,2.5h19.3c1.4,0,2.5-1.1,2.5-2.5v-27
		C24.3,1.3,23.2,0.1,21.8,0.1z M23.3,29.6c0,0.8-0.7,1.5-1.5,1.5H2.5c-0.8,0-1.5-0.7-1.5-1.5v-27c0-0.8,0.7-1.5,1.5-1.5h19.3
		c0.8,0,1.5,0.7,1.5,1.5V29.6z"/>
	<path class="st1" d="M19.7,4.6c-0.9,0-1.7,0.8-1.7,1.7c0,0.4,0.1,0.7,0.3,1l-2.6,2.6c-0.3-0.2-0.6-0.3-1-0.3
		c-0.3,0-0.7,0.1-0.9,0.3l-2.6-2.6c0.2-0.3,0.3-0.6,0.3-0.9c0-0.9-0.8-1.7-1.7-1.7S8,5.4,8,6.3C8,6.7,8,6.9,8.2,7.2L5.5,9.9
		C5.3,9.7,5,9.6,4.7,9.6c-0.9,0-1.7,0.8-1.7,1.7s0.8,1.7,1.7,1.7s1.7-0.8,1.7-1.7c0-0.3-0.1-0.6-0.3-0.9l2.6-2.6
		C9,8,9.3,8.1,9.7,8.1c0.3,0,0.6-0.1,0.8-0.2l2.7,2.7c-0.1,0.3-0.2,0.5-0.2,0.9c0,1,0.8,1.7,1.7,1.7s1.7-0.8,1.7-1.7
		c0-0.3-0.1-0.6-0.2-0.8l2.7-2.7c0.2,0.1,0.5,0.2,0.8,0.2c0.9,0,1.7-0.8,1.7-1.7S20.6,4.6,19.7,4.6z M4.7,12.2
		c-0.5,0-0.9-0.4-0.9-0.9s0.4-0.9,0.9-0.9s0.9,0.4,0.9,0.9S5.1,12.2,4.7,12.2z M8.8,6.3c0-0.5,0.4-0.9,0.9-0.9s0.9,0.4,0.9,0.9
		s-0.4,0.9-0.9,0.9S8.8,6.8,8.8,6.3z M14.7,12.2c-0.5,0-0.9-0.4-0.9-0.9s0.4-0.9,0.9-0.9s0.9,0.4,0.9,0.9S15.2,12.2,14.7,12.2z
		 M19.7,7.2c-0.5,0-0.9-0.4-0.9-0.9s0.4-0.9,0.9-0.9s0.9,0.4,0.9,0.9S20.1,7.2,19.7,7.2z"/>
	<rect x="10.2" y="18.2" class="st1" width="10.2" height="0.9"/>
	<rect x="10.2" y="20.2" class="st1" width="10.2" height="0.9"/>
	<rect x="10.2" y="24.2" class="st1" width="10.2" height="0.9"/>
	<rect x="10.2" y="26.2" class="st1" width="10.2" height="0.9"/>
	<polygon class="st1" points="5.2,20.5 4.1,19.3 3.4,20 5.2,21.7 8.5,18.3 7.9,17.7 	"/>
	<polygon class="st1" points="5.2,26.5 4.1,25.3 3.4,26 5.2,27.7 8.5,24.3 7.9,23.7 	"/>
</g>
</svg>
